<?xml version="1.0" encoding="UTF-8" standalone="no"?>
<svg
   xmlns:dc="http://purl.org/dc/elements/1.1/"
   xmlns:cc="http://creativecommons.org/ns#"
   xmlns:rdf="http://www.w3.org/1999/02/22-rdf-syntax-ns#"
   xmlns:svg="http://www.w3.org/2000/svg"
   xmlns="http://www.w3.org/2000/svg"
   xmlns:sodipodi="http://sodipodi.sourceforge.net/DTD/sodipodi-0.dtd"
   xmlns:inkscape="http://www.inkscape.org/namespaces/inkscape"
   viewBox="0 0 36 36"
   version="1.1"
   id="svg841"
   sodipodi:docname="icon.svg"
   inkscape:version="1.0.1 (3bc2e813f5, 2020-09-07, custom)">
  <metadata
     id="metadata847">
    <rdf:RDF>
      <cc:Work
         rdf:about="">
        <dc:format>image/svg+xml</dc:format>
        <dc:type
           rdf:resource="http://purl.org/dc/dcmitype/StillImage" />
        <dc:title></dc:title>
      </cc:Work>
    </rdf:RDF>
  </metadata>
  <defs
     id="defs845" />
  <sodipodi:namedview
     pagecolor="#ffffff"
     bordercolor="#666666"
     borderopacity="1"
     objecttolerance="10"
     gridtolerance="10"
     guidetolerance="10"
     inkscape:pageopacity="0"
     inkscape:pageshadow="2"
     inkscape:window-width="1910"
     inkscape:window-height="1043"
     id="namedview843"
     showgrid="false"
     inkscape:zoom="8.3085047"
     inkscape:cx="19.418795"
     inkscape:cy="17.916443"
     inkscape:window-x="1924"
     inkscape:window-y="31"
     inkscape:window-maximized="0"
     inkscape:current-layer="svg841" />
  <g
     id="g906"
     transform="translate(0,0.2768296)">
    <path
       id="circle833"
       style="fill:#212121;fill-opacity:1"
       d="m 29.001577,18.448479 a 10.694,10.694 0 0 1 -10.694,10.694 10.694,10.694 0 0 1 -10.6940011,-10.694 10.694,10.694 0 0 1 10.6940011,-10.6939998 10.694,10.694 0 0 1 10.694,10.6939998 z" />
    <path
       fill="#f4900c"
       d="m 10.536576,23.199479 c -0.9849999,0.067 -1.6889999,-0.308 -2.2029999,-0.917 0.214,0.557 0.487,1.081 0.788,1.588 0.771,0.289 1.5909999,0.41 2.5400009,-0.272 -0.463,-0.227 -0.880001,-0.415 -1.125001,-0.399 z M 23.393577,9.0564794 c 0.045,0.328 -0.187001,0.5 -0.75,0.363 -0.955,-0.232 -1.793,0.7759996 -2.274001,1.6189996 -0.946999,1.657 -4.853999,3.524 -4.856999,2.087 -10e-4,-0.679 -3.452,0.843 -3.893,0.161 -0.417,-0.644 -1.6630009,-0.396 -1.9210009,-1.168 -1.135,1.544 -1.869,3.402 -2.04,5.422 0.377,0.718 0.864,1.282 1.352,1.526 0.66,0.33 3.7260009,1.528 4.1740009,0.763 0.747,-1.276 5.229,-0.373 5.121999,-1.044 -0.205,-1.285 2.427,-0.23 3.373,-1.886 0.482,-0.843 1.533,-1.49 2.489,-1.258 1.116,0.271 2.493,-1.643 2.389,-3.996 -0.871,-1.057 -1.951,-1.9309996 -3.163999,-2.5889996 z m 3.181,16.1749996 c -0.338,0.166 -0.671,0.293 -0.975,0.326 -2.248001,0.243 -2.734,2.005 -4.242001,1.703 -0.777,-0.156 -1.837,1.214 -3.05,1.297 -0.611,0.042 -1.489,0.141 -2.385999,0.308 0.767999,0.175 1.565,0.277 2.385999,0.277 3.331,0 6.305,-1.523 8.267001,-3.911 z"
       id="path835"
       style="fill:#7b1fa2;fill-opacity:1" />
  </g>
  <g
     aria-label="Y"
     id="text851"
     style="font-style:normal;font-weight:normal;font-size:40px;line-height:1.25;font-family:sans-serif;fill:#212121;fill-opacity:1;stroke:#7b1fa2;stroke-opacity:1"
     transform="matrix(0.86411835,0,0,0.86411835,2.7586714,3.5658982)">
    <path
       d="M 20,20.683211 30.96,2.9632109 H 26.52 L 18.2,17.163211 9.64,2.9632109 H 5.04 L 16.28,20.683211 v 11.44 H 20 Z"
       id="path859"
       style="fill:#212121;fill-opacity:1;stroke:#7b1fa2;stroke-opacity:1" />
  </g>
  <g
     id="g902"
     transform="translate(0,0.2768296)">
    <path
       fill="#e85e00"
       d="m 23.532576,9.1224794 c 0.953,0.535 1.811,1.2129996 2.554,2.0029996 2.491,-0.157 4.01,0.429 3.883,1.777 -0.066,0.705 -0.585,1.542 -1.431,2.435 -2.108,2.221 -6.309,4.796 -11.07,6.602 -3.309,1.255 -6.258,1.9 -8.3659999,1.934 -2.145,0.035 -3.418,-0.563 -3.302,-1.803 0.076,-0.815 0.752,-1.806 1.852,-2.857 -0.019,-0.255 -0.039,-0.507 -0.039,-0.765 0,-0.848 0.109,-1.669 0.296,-2.461 -4.302,2.983 -7.10199998,6.268 -7.10199998,8.83 0,3.487 5.16199998,4.558 12.27499988,2.957 1.65,-0.371 3.405,-0.886 5.225,-1.549 3.9,-1.419 7.489,-3.3 10.399,-5.317 4.301,-2.983 7.101,-6.268 7.101,-8.83 0,-3.4859996 -5.162,-4.5579996 -12.275,-2.9559996 z"
       id="path837"
       style="fill:#212121;fill-opacity:1" />
    <path
       fill="#f4900c"
       d="m 6.6635761,18.499479 c -0.742,0.711 -1.369,1.524 -1.88,2.382 -0.49,0.852 -0.907,1.811 -0.844,2.671 0.035,0.856 0.682,1.366 1.558,1.602 0.874,0.227 1.845,0.287 2.834,0.229 1.9619999,-0.089 3.9300009,-0.415 5.8410009,-0.965 1.923999,-0.505 3.791,-1.225 5.614999,-2.036 3.648,-1.628 7.068,-3.789 10.132,-6.382 0.368,-0.333 0.771,-0.649 1.124,-0.986 0.333,-0.337 0.647,-0.713 0.91,-1.097 0.522,-0.768 0.826,-1.667 0.335,-2.352 -0.49,-0.696 -1.495,-1.075 -2.453,-1.271 -0.981,-0.187 -2.01,-0.23 -3.03,-0.111 0.992,-0.2649996 2.037,-0.3949996 3.088,-0.3159996 1.03,0.092 2.172,0.2999996 3.008,1.2209996 0.41,0.457 0.599,1.145 0.524,1.746 -0.057,0.611 -0.293,1.15 -0.563,1.635 -0.278,0.485 -0.59,0.925 -0.945,1.348 -0.352,0.404 -0.709,0.777 -1.072,1.163 -2.931999,2.994 -6.44,5.414 -10.261,7.159 -3.815999,1.72 -7.973999,2.911 -12.2609999,2.754 -1.056,-0.04 -2.157,-0.133 -3.236,-0.548 -0.534,-0.209 -1.082,-0.517 -1.5,-1.016 -0.429,-0.49 -0.635,-1.171 -0.589,-1.774 0.098,-1.213 0.704,-2.152 1.349,-2.976 0.664,-0.819 1.447,-1.525 2.316,-2.08 z"
       id="path839"
       style="fill:#69f0ae;fill-opacity:1" />
  </g>
</svg>
